<svg width="510" height="510" viewBox="0 0 510 510" fill="none" xmlns="http://www.w3.org/2000/svg">
<g clip-path="url(#clip0_130_460)">
<rect width="510" height="510" rx="10" fill="#0072BC"/>
<g style="mix-blend-mode:soft-light" opacity="0.2">
<path d="M504.577 501.689C473.444 531.693 419.642 572.925 364.478 602.657C295.363 639.842 211.732 638.927 142.656 601.607C87.9977 572.108 27.658 527.179 3.51049 501.475C-115.184 375.114 -36.1647 186.526 30.888 115.834C-14.43 165.861 1.38954 258.404 13.473 307.283C53.9265 471.14 183.479 643.48 241.717 519.376C242.869 516.92 244.697 514.843 246.987 513.388C249.277 511.933 251.934 511.161 254.647 511.161C257.36 511.161 260.017 511.933 262.307 513.388C264.596 514.843 266.424 516.92 267.577 519.376C338.443 670.566 514.539 379.064 507.534 201.917C506.172 167.846 496.969 135.468 476.129 113.635C544.738 167.418 622.435 387.84 504.577 501.689Z" fill="url(#paint0_linear_130_460)"/>
<path d="M361.402 132.548C186.843 208.435 161.898 27.7858 49.3132 100.17C42.5835 104.644 36.3822 109.866 30.8279 115.737C-27.994 179.948 -108.376 381.924 3.45039 501.377C-163.734 341.704 -178.483 133.229 -99.1135 30.2181C-49.5342 -33.9937 32.5014 -44.4428 94.7674 -22.4745C246.911 31.3661 246.405 146.169 361.402 132.548Z" fill="url(#paint1_linear_130_460)"/>
<path d="M504.577 501.689C618.017 380.815 535.359 175.065 476.129 113.635C455.678 92.2315 424.059 80.9458 377.534 88.3399C294.662 101.649 261.817 77.3072 217.569 24.9259C303.632 61.8963 326.204 5.31206 407.636 -20.1586C492.707 -46.8357 551.86 -28.8953 593.987 13.0759C687.736 106.572 681.49 331.839 504.577 501.689Z" fill="url(#paint2_linear_130_460)"/>
</g>
</g>
<defs>
<linearGradient id="paint0_linear_130_460" x1="253.878" y1="591.936" x2="253.878" y2="234.509" gradientUnits="userSpaceOnUse">
<stop stop-color="#0072BC"/>
<stop offset="1" stop-color="#4DBEEE"/>
</linearGradient>
<linearGradient id="paint1_linear_130_460" x1="103.757" y1="47.8277" x2="120.296" y2="501.027" gradientUnits="userSpaceOnUse">
<stop stop-color="#4DBEEE"/>
<stop offset="1" stop-color="white"/>
</linearGradient>
<linearGradient id="paint2_linear_130_460" x1="433.438" y1="35.7835" x2="449.977" y2="489.002" gradientUnits="userSpaceOnUse">
<stop stop-color="#4DBEEE"/>
<stop offset="1" stop-color="white"/>
</linearGradient>
<clipPath id="clip0_130_460">
<rect width="510" height="510" rx="10" fill="white"/>
</clipPath>
</defs>
</svg>
