<svg width="30" height="30" viewBox="0 0 30 30" fill="none" xmlns="http://www.w3.org/2000/svg">
<path d="M15 -0.000366211C6.55125 -0.000366211 0 6.19088 0 14.5496C0 18.9221 1.7925 22.7021 4.71 25.3121C4.95375 25.5296 5.10375 25.8371 5.11125 26.1671L5.19375 28.8371C5.19976 29.0336 5.25393 29.2256 5.3515 29.3962C5.44907 29.5668 5.58706 29.7108 5.75333 29.8156C5.91961 29.9204 6.10908 29.9828 6.3051 29.9972C6.50111 30.0116 6.69767 29.9777 6.8775 29.8984L9.855 28.5859C10.1062 28.4734 10.3913 28.4546 10.6575 28.5259C12.0263 28.9009 13.4813 29.1034 15 29.1034C23.4488 29.1034 30 22.9121 30 14.5534C30 6.19463 23.4488 -0.000366211 15 -0.000366211Z" fill="url(#paint0_radial_345_1285)"/>
<path d="M5.99254 18.8059L10.3988 11.8159C10.5646 11.5527 10.7831 11.3268 11.0406 11.1523C11.298 10.9778 11.5889 10.8587 11.8948 10.8023C12.2006 10.7459 12.5149 10.7535 12.8176 10.8247C13.1204 10.8959 13.4051 11.0291 13.6538 11.2159L17.16 13.8446C17.3166 13.9618 17.507 14.0248 17.7025 14.0242C17.8981 14.0235 18.0881 13.9591 18.2438 13.8409L22.9763 10.2484C23.6063 9.76838 24.4313 10.5259 24.0113 11.1971L19.6013 18.1834C19.4355 18.4465 19.217 18.6725 18.9595 18.847C18.7021 19.0214 18.4112 19.1406 18.1053 19.197C17.7995 19.2534 17.4852 19.2457 17.1825 19.1745C16.8797 19.1033 16.595 18.9701 16.3463 18.7834L12.84 16.1546C12.6835 16.0374 12.4931 15.9744 12.2975 15.9751C12.102 15.9758 11.912 16.0401 11.7563 16.1584L7.02379 19.7509C6.39379 20.2309 5.56879 19.4771 5.99254 18.8059Z" fill="white"/>
<defs>
<radialGradient id="paint0_radial_345_1285" cx="0" cy="0" r="1" gradientUnits="userSpaceOnUse" gradientTransform="translate(5.025 29.9996) scale(33 33)">
<stop stop-color="#0099FF"/>
<stop offset="0.6" stop-color="#A033FF"/>
<stop offset="0.9" stop-color="#FF5280"/>
<stop offset="1" stop-color="#FF7061"/>
</radialGradient>
</defs>
</svg>
