<svg width="8" height="18" viewBox="0 0 8 18" fill="none" xmlns="http://www.w3.org/2000/svg">
<path d="M7.66016 12.1816L4.93164 14.9316C4.78125 15.0605 4.60938 15.125 4.4375 15.125C4.24414 15.125 4.07227 15.0605 3.94336 14.9316L1.21484 12.1816C1 11.9883 0.935547 11.6875 1.04297 11.4297C1.15039 11.1719 1.4082 11 1.6875 11H7.16602C7.44531 11 7.68164 11.1719 7.78906 11.4297C7.89648 11.6875 7.85352 11.9883 7.66016 12.1816Z" fill="#6C757D"/>
<path d="M1.19336 6.58984L3.92188 3.83984C4.07227 3.71094 4.24414 3.625 4.4375 3.625C4.60938 3.625 4.78125 3.71094 4.91016 3.83984L7.63867 6.58984C7.83203 6.7832 7.89648 7.08398 7.78906 7.3418C7.68164 7.59961 7.44531 7.75 7.16602 7.75H1.6875C1.4082 7.75 1.15039 7.59961 1.04297 7.3418C0.935547 7.08398 1 6.7832 1.19336 6.58984Z" fill="#6C757D"/>
</svg>
