<svg width="30" height="30" viewBox="0 0 30 30" fill="none" xmlns="http://www.w3.org/2000/svg">
<g clip-path="url(#clip0_345_1289)">
<path d="M5.58682 0.155232C6.61495 -0.00965664 7.66247 -0.00965663 8.7003 0.00974201L8.61301 0.0970359C7.2551 0.989374 6.12998 2.21149 5.31524 3.60819C3.68575 6.41129 3.09409 9.72846 3.22019 12.9486C3.35598 15.5675 3.98643 18.2057 5.31524 20.4753C5.53832 20.8827 5.9069 21.2416 5.9166 21.7362C5.95539 22.7935 5.43163 23.7925 4.72358 24.5587C4.77208 24.6072 4.82057 24.6557 4.85937 24.7042C5.51892 25.4317 6.23667 26.1106 6.90593 26.8284C7.86616 27.9147 8.96218 28.8749 9.89332 29.9806C8.33173 30 6.75074 30.0776 5.19885 29.7867C3.25898 29.4084 1.5325 28.0602 0.708061 26.2561C0.203696 25.2183 0.0582065 24.0544 0.0194092 22.9098C0.0194092 17.6431 0.0194092 12.3667 0.0194092 7.09995C0.0485071 5.33467 0.514074 3.4918 1.75559 2.18239C2.73522 1.07667 4.12222 0.358918 5.58682 0.155232Z" fill="#0068FF"/>
<path d="M19.8254 9.82544C20.2425 9.82544 20.6596 9.82544 21.0767 9.82544C21.067 12.26 21.067 14.7042 21.0767 17.1387C20.6693 17.0805 19.9903 17.3424 19.8351 16.7993C19.8157 14.4811 19.8351 12.1533 19.8254 9.82544Z" fill="#0068FF"/>
<path d="M7.09994 9.91276C9.0398 9.91276 10.97 9.90306 12.9001 9.91276C12.8904 10.291 12.8613 10.7081 12.6092 11.0088C11.29 12.6577 9.99033 14.3259 8.67123 15.9748C10.0776 15.9845 11.484 15.9748 12.8904 15.9748C12.8613 16.3046 12.9777 16.6829 12.7643 16.9739C12.6286 17.1582 12.3861 17.1388 12.1921 17.1485C10.4365 17.1388 8.67123 17.1582 6.91565 17.1388C6.92535 16.7702 6.92535 16.3531 7.18723 16.0621C8.49664 14.4229 9.81575 12.7935 11.1155 11.1446C9.77695 11.1446 8.43844 11.1349 7.09994 11.1543C7.09024 10.7372 7.09994 10.3298 7.09994 9.91276Z" fill="#0068FF"/>
<path d="M24.1707 11.5326C25.5674 11.2222 27.0708 12.1339 27.4588 13.5112C27.9341 14.937 27.0611 16.6344 25.6256 17.0709C24.4035 17.4977 22.9292 16.9351 22.2987 15.81C21.8041 14.9758 21.775 13.8798 22.2212 13.0263C22.6091 12.26 23.3463 11.7072 24.1707 11.5326ZM24.1513 12.7644C23.2978 13.0651 22.8419 14.1029 23.1717 14.937C23.4433 15.7227 24.3744 16.2076 25.1697 15.9652C26.0815 15.7421 26.644 14.6751 26.3143 13.7925C26.0524 12.9196 24.9952 12.4152 24.1513 12.7644Z" fill="#0068FF"/>
<path d="M13.8604 12.5413C14.5296 11.7072 15.7032 11.2998 16.7411 11.6005C17.0805 11.6878 17.3909 11.8527 17.6916 12.0369C17.6916 11.9496 17.6819 11.7654 17.6819 11.6684C18.0699 11.6684 18.4578 11.6684 18.8555 11.6684C18.8555 13.4918 18.8555 15.3153 18.8555 17.1388C18.5645 17.1291 18.2735 17.1679 17.9923 17.1097C17.7983 17.0321 17.7304 16.809 17.6528 16.6344C16.5762 17.4686 14.8788 17.2843 13.9864 16.2658C13.0165 15.2765 12.968 13.5985 13.8604 12.5413ZM15.4316 12.7935C14.5296 13.1136 14.0931 14.2678 14.549 15.1019C14.937 15.9167 16.033 16.2561 16.8089 15.81C17.5364 15.4317 17.8662 14.4909 17.5558 13.7343C17.2648 12.9002 16.2464 12.4443 15.4316 12.7935Z" fill="#0068FF"/>
<path d="M8.61295 0.0969374C8.82634 0.0387415 9.05912 0.0193429 9.28221 0.00964355C13.1619 0.0290422 17.0417 0.00964355 20.9214 0.0193429C21.9592 0.0290422 22.997 -0.038853 24.0349 0.116336C25.4607 0.223029 26.8283 0.824386 27.8952 1.78462C29.224 3.05523 29.9321 4.8884 29.9612 6.71187C29.9612 11.8525 29.9612 17.0029 29.9612 22.1435C29.9515 22.1726 29.9224 22.2308 29.9127 22.2696C28.5354 23.8118 26.6731 24.8593 24.7332 25.5383C22.1144 26.4306 19.3113 26.7216 16.5567 26.5082C13.8021 26.2754 11.0281 25.5577 8.70025 24.0349C7.50723 24.5683 6.18812 24.8205 4.88841 24.7138C4.83992 24.6653 4.79142 24.6168 4.75262 24.5683C5.46067 23.8118 5.98444 22.8127 5.94564 21.7458C5.93594 21.2512 5.56736 20.8923 5.34428 20.4849C4.01547 18.2056 3.38502 15.5771 3.24923 12.9582C3.11344 9.73806 3.70509 6.42089 5.34428 3.61779C6.12023 2.20169 7.25505 0.979576 8.61295 0.0969374ZM19.8254 9.82536C19.8351 12.1532 19.8157 14.4713 19.8351 16.7992C19.9903 17.3423 20.6692 17.0804 21.0766 17.1386C21.0669 14.7041 21.0669 12.2599 21.0766 9.82536C20.6595 9.82536 20.2424 9.82536 19.8254 9.82536ZM7.09986 9.91265C7.09986 10.32 7.09986 10.7371 7.09986 11.1445C8.43836 11.1251 9.77687 11.1445 11.1154 11.1348C9.81567 12.7739 8.48686 14.4034 7.18715 16.0523C6.92527 16.3433 6.92527 16.7604 6.91557 17.1289C8.67115 17.1483 10.4267 17.1289 12.192 17.1386C12.3957 17.1386 12.6382 17.1483 12.7643 16.9641C12.9776 16.6828 12.8613 16.2948 12.8904 15.965C11.484 15.965 10.0776 15.9747 8.67115 15.965C9.99026 14.3161 11.29 12.6479 12.6091 10.999C12.8613 10.6886 12.8807 10.2812 12.9001 9.90295C10.9699 9.90295 9.03972 9.91265 7.09986 9.91265ZM24.1707 11.5324C23.3462 11.707 22.5994 12.2599 22.2211 13.0164C21.7652 13.8797 21.7943 14.966 22.2987 15.8001C22.9389 16.9253 24.4035 17.4878 25.6256 17.061C27.0708 16.6246 27.9437 14.9272 27.4587 13.5014C27.0805 12.1338 25.5674 11.2221 24.1707 11.5324ZM13.8603 12.5412C12.9776 13.5887 13.0261 15.2764 13.9767 16.2657C14.869 17.2841 16.5664 17.4781 17.643 16.6343C17.7206 16.8089 17.7788 17.0222 17.9825 17.1095C18.2638 17.1677 18.5548 17.1289 18.8457 17.1386C18.836 15.3152 18.8457 13.4917 18.8457 11.6682C18.4578 11.6682 18.0601 11.6682 17.6721 11.6682C17.6721 11.7555 17.6818 11.9398 17.6818 12.0368C17.3811 11.8525 17.0708 11.6876 16.7313 11.6003C15.7032 11.3094 14.5295 11.7167 13.8603 12.5412Z" fill="white"/>
<path d="M15.4315 12.7933C16.2463 12.4441 17.255 12.9097 17.5654 13.7245C17.8757 14.481 17.546 15.4218 16.8185 15.8001C16.0329 16.2463 14.9466 15.9068 14.5586 15.0921C14.1027 14.2676 14.5392 13.1037 15.4315 12.7933Z" fill="white"/>
<path d="M24.1513 12.7643C24.9951 12.4151 26.0524 12.9195 26.3239 13.7924C26.6537 14.675 26.0912 15.742 25.1794 15.9651C24.3744 16.2075 23.4529 15.7226 23.1814 14.9369C22.8419 14.1028 23.2978 13.065 24.1513 12.7643Z" fill="white"/>
<path d="M29.8933 22.2599L29.9709 22.1726C30.0097 23.6857 29.8448 25.2667 29.1076 26.6246C28.2444 28.2056 26.6731 29.3792 24.9078 29.7575C23.9185 29.9612 22.9001 30.0097 21.8913 30C18.7875 30 15.6838 30 12.58 30C11.6876 29.9806 10.7953 30.0291 9.90297 29.9806C8.96213 28.8748 7.86611 27.9146 6.91558 26.8283C6.23662 26.1105 5.52857 25.4316 4.86902 24.7041C6.17843 24.8108 7.48783 24.5489 8.68085 24.0252C11.0184 25.548 13.7827 26.2657 16.5373 26.4985C19.2919 26.7119 22.095 26.4209 24.7138 25.5286C26.6537 24.8496 28.5063 23.8021 29.8933 22.2599Z" fill="#005BE0"/>
</g>
<defs>
<clipPath id="clip0_345_1289">
<rect width="30" height="30" fill="white"/>
</clipPath>
</defs>
</svg>
