<svg width="29" height="29" viewBox="0 0 29 29" fill="none" xmlns="http://www.w3.org/2000/svg">
<path fill-rule="evenodd" clip-rule="evenodd" d="M4.29743 23.5257C2.24006 21.0886 1 17.9391 1 14.5C1 6.76801 7.26801 0.5 15 0.5C22.732 0.5 29 6.76801 29 14.5C29 22.232 22.732 28.5 15 28.5C12.4525 28.5 10.064 27.8196 8.00615 26.6306L3.8 28.5L4.29743 23.5257Z" fill="white"/>
<path fill-rule="evenodd" clip-rule="evenodd" d="M11.0496 11.5H6.28053V12.901H9.09089L6 17.2091V18.3299H11.1198V16.9189H8.00883L11.0496 12.6158V11.5ZM16.3046 13.7866V18.3299H14.8469V18.1097C14.4812 18.3699 14.1004 18.5 13.7097 18.5C13.324 18.5 12.9532 18.3999 12.6076 18.1998C12.2469 17.9896 11.9614 17.6994 11.7459 17.3342C11.5205 16.9489 11.4103 16.5186 11.4103 16.0533C11.4103 15.3027 11.6758 14.6873 12.2068 14.2069C12.6427 13.8117 13.1436 13.6165 13.7097 13.6165C14.1004 13.6165 14.4812 13.7466 14.8469 14.0068V13.7866H16.3046ZM13.865 14.9274C13.5794 14.9274 13.344 15.0325 13.1486 15.2377C12.9683 15.4328 12.8781 15.713 12.8781 16.0733C12.8781 16.4535 12.9933 16.7437 13.2238 16.9439C13.4091 17.109 13.6245 17.1891 13.88 17.1891C14.1656 17.1891 14.406 17.089 14.5914 16.8838C14.7717 16.6887 14.8619 16.4085 14.8619 16.0482C14.8619 15.658 14.7467 15.3628 14.5212 15.1626C14.3459 15.0075 14.1255 14.9274 13.865 14.9274ZM18.7393 11.5H17.2815V18.3299H18.7393V11.5ZM21.9354 13.6165C22.6617 13.6165 23.2729 13.8867 23.7588 14.4271C24.1696 14.8824 24.375 15.4278 24.375 16.0533C24.375 16.7838 24.1095 17.3892 23.5785 17.8695C23.1126 18.2898 22.5515 18.5 21.9003 18.5C21.1489 18.5 20.5327 18.2298 20.0468 17.6894C19.636 17.2291 19.4306 16.6837 19.4306 16.0533C19.4306 15.4378 19.626 14.9124 20.0117 14.4671C20.5076 13.9017 21.1489 13.6165 21.9354 13.6165ZM21.8953 14.9274C21.7099 14.9274 21.5346 14.9725 21.3793 15.0675C21.0587 15.2627 20.8984 15.5929 20.8984 16.0583C20.8984 16.4485 21.0136 16.7437 21.239 16.9439C21.4244 17.109 21.6498 17.1891 21.9053 17.1891C22.2009 17.1891 22.4413 17.084 22.6367 16.8788C22.817 16.6837 22.9072 16.4035 22.9072 16.0482C22.9072 15.663 22.792 15.3678 22.5666 15.1726C22.3812 15.0075 22.1608 14.9274 21.8953 14.9274Z" fill="#03A5FA"/>
</svg>
