<svg width="66" height="50" viewBox="0 0 66 50" fill="none" xmlns="http://www.w3.org/2000/svg">
<g clip-path="url(#clip0_142_2190)">
<path d="M30.875 33.8315C30.875 37.3239 32.05 40.4283 34.4968 42.8612C35.5985 44.0196 36.9429 44.9272 38.4233 45.5452C39.9142 46.1677 41.5236 46.4887 43.1433 46.4973C44.787 46.5302 46.4283 46.2589 47.9666 45.6925C49.4972 45.1289 50.9073 44.2795 52.0972 43.1778C53.2584 42.1533 54.2062 40.9127 54.8638 39.5142C55.5279 38.1017 55.8766 36.5681 55.875 35.007C55.8929 32.0773 54.699 29.3189 52.6462 27.237C51.5219 26.0421 50.1564 25.1121 48.6579 24.474C49.0155 23.6223 49.5113 22.804 50.1426 22.0451C51.966 20.0285 54.1768 18.2842 56.6905 16.8977L60.0969 15.0187L57.8696 11.8291L54.4946 6.9961L52.8417 4.62922L50.2036 5.80162C44.8073 8.19979 40.2712 12.0864 36.5789 17.3131C32.8704 22.5626 30.875 28.0869 30.875 33.8315ZM3.5 33.8315C3.5 37.3239 4.67503 40.4283 7.12179 42.8612C8.22346 44.0196 9.56795 44.9272 11.0483 45.5452C12.5441 46.1697 14.1591 46.4908 15.7843 46.4974C17.4039 46.5169 19.0188 46.2359 20.5291 45.6634C22.021 45.0978 23.3931 44.2544 24.5483 43.1658C25.7033 42.1436 26.6463 40.9072 27.3013 39.5142C27.9654 38.1017 28.3141 36.5681 28.3125 35.007C28.3304 32.0713 27.1315 29.3075 25.0709 27.224C23.9068 26.0085 22.4947 25.0695 20.9486 24.4349C21.3131 23.6105 21.8132 22.8203 22.4463 22.0901C24.3316 20.0637 26.5873 18.3058 29.1341 16.8943L32.53 15.0122L30.3071 11.8291L26.9321 6.9961L25.2623 4.60505L22.6092 5.81597C17.3408 8.2206 12.8815 12.1073 9.20388 17.3131C5.49541 22.5626 3.5 28.0869 3.5 33.8315Z" fill="#9EC5FE" stroke="white" stroke-width="7"/>
</g>
<defs>
<clipPath id="clip0_142_2190">
<rect width="1440" height="10150" fill="white" transform="translate(-1374 -2968)"/>
</clipPath>
</defs>
</svg>
